<?xml version="1.0" ?>
<!-- Uploaded to: SVG Repo, www.svgrepo.com, Generator: SVG Repo Mixer Tools -->
<svg width="800px" height="800px" viewBox="0 0 64.001 64.001" data-name="Empty  Glass" id="Empty_Glass" xmlns="http://www.w3.org/2000/svg">
<rect fill="none" height="64.001" id="rect2317-39" transform="translate(0 0)" width="64"/>
<g id="g2096" transform="translate(10.395 3.75)">
<path d="M1.66,1.657,6.351,54.408H35.668L40.359,1.657H1.66M1.66-.6h38.7a2.254,2.254,0,0,1,2.248,2.452L37.916,54.608a2.255,2.255,0,0,1-2.248,2.054H6.351A2.255,2.255,0,0,1,4.1,54.608L-.587,1.856A2.254,2.254,0,0,1,1.66-.6Z" id="path2098" transform="translate(0.596 0.596)"/>
</g>
<g id="g2100" transform="translate(18.836 13.147)">
<path d="M25.839,93.161l2.044,24.979" fill="none" id="path2102" stroke="#000000" stroke-linecap="round" stroke-width="1.8" transform="translate(-25.839 -93.161)"/>
</g>
<g id="g2104" transform="translate(21.356 44.372)">
<path d="M25.881,98.142l.491,6.061" fill="none" id="path2106" stroke="#000000" stroke-linecap="round" stroke-width="1.8" transform="translate(-25.881 -98.142)"/>
</g>
</svg>