<svg xmlns="http://www.w3.org/2000/svg" viewBox="0 0 156.7 185.9">
<!-- SVG created with Arrow, by QuiverAI (https://quiver.ai) -->
  <style type="text/css">.cls-0 {fill:#FBF9F4;}
.cls-1 {fill:#DD8C6A;}
.cls-2 {fill:#93A57B;}</style>
  <path class="cls-1" d="m56.2 89.3v-54.9c0-11.2-9.1-21.6-21.5-21.6s-21.9 9.1-21.9 21.6v80.2 1.7c8.2-10.3 21.8-23.6 43.4-27z"/>
  <path class="cls-1" d="m12.7 151.2c0 11.6 8.8 21.9 21.6 21.9s22.3-9 22.3-21.1v-51.5c-28.4 4.2-43.9 24.6-43.9 49.9v0.8z"/>
  <path class="cls-1" d="m67.3 98.8c0 24.7 15.3 74.3 77.2 74.3-0.7-33-22.4-73.1-77.2-74.3z"/>
  <path class="cls-2" d="m67.4 87.6h4.1c37 0 72.6-22.5 73.2-73.3-37.5-0.8-76.9 22.3-77.3 73.3z"/>
</svg>