<?xml version="1.0" encoding="UTF-8"?><svg id="a" xmlns="http://www.w3.org/2000/svg" viewBox="0 0 1024 1024"><defs><style>.b{fill:none;stroke:#e8bfac;stroke-miterlimit:10;stroke-width:14.17px;}.c{fill:#e08f6d;}.d{fill:#e8bfac;}</style></defs><rect class="c" x="543.27" y="453.68" width="43.2" height="124.42"/><g><rect class="c" x="235.68" y="381.97" width="43.2" height="196.13"/><polygon class="c" points="381.48 578.1 323.16 578.1 278.02 526.9 277.8 499.9 323.16 453.68 381.48 453.68 322.51 512.22 381.48 578.1"/></g><ellipse class="b" cx="449.04" cy="515.5" rx="57.94" ry="57.63"/><rect class="c" x="752.35" y="453.68" width="43.2" height="124.42"/><circle class="d" cx="618.65" cy="478.52" r="24.84"/><path class="c" d="M778.28,515.89c0,34.36-28,62.21-62.54,62.21s-62.54-27.85-62.54-62.21,28-62.21,62.54-62.21,62.54,27.85,62.54,62.21Zm-62.43-24.62c-13.72,0-24.84,11.12-24.84,24.84s11.12,24.84,24.84,24.84,24.84-11.12,24.84-24.84-11.12-24.84-24.84-24.84Z"/><g><polygon class="c" points="450.3 548.6 434.99 535.23 503.74 456.49 518.9 469.8 450.3 548.6"/><polygon class="c" points="449.68 534.77 435.09 549.37 405.01 518.83 418.92 504.06 449.68 534.77"/><ellipse class="c" cx="412.49" cy="511.96" rx="10.05" ry="10.27"/><circle class="c" cx="442.4" cy="542.74" r="9.84"/><ellipse class="c" cx="511.17" cy="463.31" rx="10.15" ry="10.04" transform="translate(-3.65 4.06) rotate(-.45)"/></g></svg>